Coordinates
version=1
nRows=34
nColumns=38
inDegrees=no

Units are S.I. units (second, meters, Newtons, ...)
If the header above contains a line with 'inDegrees', this indicates whether rotational values are in degrees (yes) or radians (no).

endheader
time	pelvis_tilt	pelvis_list	pelvis_rotation	pelvis_tx	pelvis_ty	pelvis_tz	hip_flexion_r	hip_adduction_r	hip_rotation_r	knee_angle_r	ankle_angle_r	subtalar_angle_r	mtp_angle_r	hip_flexion_l	hip_adduction_l	hip_rotation_l	knee_angle_l	ankle_angle_l	subtalar_angle_l	mtp_angle_l	lumbar_extension	lumbar_bending	lumbar_rotation	arm_flex_r	arm_add_r	arm_rot_r	elbow_flex_r	pro_sup_r	wrist_flex_r	wrist_dev_r	arm_flex_l	arm_add_l	arm_rot_l	elbow_flex_l	pro_sup_l	wrist_flex_l	wrist_dev_l
0	0.800365	1.46054	-2.45935	0.661989	1.23925	0.932221	-0.192541	-0.169344	-0.0642942	0.712817	0.117193	0	0	0.407754	-0.00269268	-0.270547	0.495886	0.0925597	0	0	-0.102747	-0.0665081	0.0915688	-0.00913873	-0.150213	0.0175987	0.428388	1.2919	0	0	-0.290283	-0.17438	0.401793	0.583157	0.716139	0	0
0.01	0.886373	1.46286	-2.53955	0.664244	1.22826	0.932465	-0.149971	-0.177712	-0.059238	0.783257	0.0739848	0	0	0.413338	0.00559714	-0.259008	0.507582	0.0837427	0	0	-0.0903468	-0.0713014	0.0876812	-0.0168462	-0.147959	0.0178532	0.428482	1.27915	0	0	-0.28746	-0.180359	0.413085	0.585818	0.706088	0	0
0.02	0.95597	1.46254	-2.60453	0.666361	1.21703	0.932911	-0.110809	-0.185916	-0.0527152	0.84962	0.0278198	0	0	0.412394	0.0142425	-0.254833	0.51454	0.0795155	0	0	-0.0814148	-0.0769093	0.0850267	-0.0263613	-0.146786	0.0222693	0.430996	1.27	0	0	-0.285338	-0.186474	0.420401	0.590946	0.698246	0	0
0.03	0.999614	1.46017	-2.64427	0.668394	1.20595	0.9336	-0.0749962	-0.193621	-0.0458403	0.912568	-0.0187858	0	0	0.404978	0.0233349	-0.25403	0.516711	0.0793324	0	0	-0.0766706	-0.0825021	0.0826501	-0.0348915	-0.145914	0.0248533	0.433787	1.26434	0	0	-0.28217	-0.191621	0.423069	0.595773	0.69513	0	0
0.04	1.04618	1.4562	-2.68765	0.670392	1.19512	0.934237	-0.0374026	-0.203436	-0.0394416	0.975375	-0.0681449	0	0	0.395493	0.0346096	-0.253594	0.515466	0.0816494	0	0	-0.072296	-0.0896573	0.0805321	-0.0426056	-0.145305	0.0281053	0.437064	1.25691	0	0	-0.278766	-0.197085	0.423975	0.601774	0.693298	0	0
0.05	1.07387	1.45086	-2.71268	0.672301	1.18453	0.93513	-0.00283713	-0.213274	-0.032981	1.03339	-0.120269	0	0	0.382108	0.0469668	-0.252401	0.510939	0.0842351	0	0	-0.0706816	-0.0970029	0.0781733	-0.0483245	-0.144757	0.0315435	0.439195	1.24758	0	0	-0.274341	-0.202013	0.422896	0.607291	0.69301	0	0
0.06	1.08066	1.44476	-2.71688	0.674073	1.17417	0.936343	0.0279616	-0.222223	-0.0267814	1.08586	-0.173942	0	0	0.365433	0.0596431	-0.249468	0.50474	0.0868203	0	0	-0.0721812	-0.10405	0.0751208	-0.0520192	-0.144026	0.0351782	0.439917	1.23735	0	0	-0.268781	-0.20644	0.419481	0.612124	0.694072	0	0
0.07	1.06777	1.43881	-2.70069	0.675693	1.16403	0.937904	0.0544188	-0.228803	-0.021508	1.13246	-0.223744	0	0	0.346306	0.0713031	-0.244215	0.498608	0.090096	0	0	-0.0766859	-0.109959	0.07069	-0.0541269	-0.143403	0.04107	0.438978	1.22963	0	0	-0.262019	-0.210495	0.414516	0.61593	0.696436	0	0
0.08	1.04016	1.433	-2.66966	0.677182	1.15398	0.939788	0.0773011	-0.233112	-0.0165834	1.17501	-0.26078	0	0	0.324457	0.0815626	-0.237919	0.491777	0.0946204	0	0	-0.0834444	-0.114637	0.0656216	-0.0552276	-0.143046	0.0490647	0.436808	1.22339	0	0	-0.254342	-0.213868	0.407948	0.618474	0.701327	0	0
0.09	1.00292	1.42847	-2.62856	0.678604	1.14405	0.941846	0.0984231	-0.234566	-0.0127579	1.21568	-0.275102	0	0	0.301474	0.0890935	-0.231333	0.485018	0.100375	0	0	-0.0912851	-0.116948	0.0598499	-0.0564252	-0.143148	0.0566778	0.43695	1.21238	0	0	-0.245945	-0.216201	0.399048	0.619632	0.712245	0	0
0.1	0.963734	1.42546	-2.5848	0.680008	1.13417	0.943945	0.118849	-0.233751	-0.0105483	1.25321	-0.270415	0	0	0.278458	0.0942042	-0.224537	0.477843	0.106933	0	0	-0.0985089	-0.117131	0.0534335	-0.0581908	-0.143301	0.0638711	0.436626	1.20722	0	0	-0.236926	-0.218483	0.392732	0.619998	0.723886	0	0
0.11	0.982284	1.41469	-2.59341	0.681829	1.12327	0.945021	0.145489	-0.291932	-0.0725118	1.29661	-0.260857	0	0	0.255994	0.112951	-0.214997	0.466622	0.112947	0	0	-0.0996588	-0.129971	0.0404631	-0.0644931	-0.141096	0.0724272	0.439129	1.20752	0	0	-0.235529	-0.227514	0.389221	0.632532	0.733079	0	0
0.12	0.894418	1.42359	-2.50284	0.682895	1.11464	0.94799	0.159808	-0.228518	-0.0136276	1.31537	-0.232427	0	0	0.235473	0.0993886	-0.210036	0.461997	0.119307	0	0	-0.10884	-0.113401	0.037103	-0.0638663	-0.143286	0.0733437	0.43804	1.2087	0	0	-0.218794	-0.224855	0.389401	0.62344	0.737153	0	0
0.13	0.849572	1.42339	-2.45293	0.684189	1.10511	0.950122	0.179102	-0.222976	-0.0145345	1.3394	-0.212839	0	0	0.212626	0.0985355	-0.205866	0.452402	0.125256	0	0	-0.114939	-0.109274	0.0310426	-0.0676083	-0.143571	0.072771	0.441935	1.21135	0	0	-0.20672	-0.225362	0.384315	0.618533	0.753196	0	0
0.14	0.822011	1.42409	-2.41782	0.685678	1.09567	0.951982	0.200526	-0.21935	-0.018501	1.35965	-0.195378	0	0	0.193146	0.0988063	-0.199094	0.442954	0.130083	0	0	-0.118136	-0.105885	0.022607	-0.071732	-0.143007	0.069592	0.445684	1.21209	0	0	-0.195921	-0.22754	0.38003	0.61831	0.763144	0	0
0.15	0.798219	1.42504	-2.3854	0.687201	1.08628	0.953749	0.22189	-0.216242	-0.0235096	1.37538	-0.182053	0	0	0.174224	0.0989871	-0.192234	0.432947	0.134293	0	0	-0.12065	-0.10265	0.0133339	-0.0761026	-0.142077	0.0645953	0.449691	1.21135	0	0	-0.185009	-0.230416	0.377513	0.619595	0.77212	0	0
0.16	0.773649	1.42564	-2.35256	0.688632	1.07692	0.955467	0.242409	-0.212906	-0.0280009	1.38653	-0.173022	0	0	0.154537	0.0988433	-0.186711	0.42199	0.1382	0	0	-0.123325	-0.0996585	0.00451913	-0.0806035	-0.141058	0.0594351	0.453325	1.21082	0	0	-0.173622	-0.23318	0.375166	0.620693	0.782768	0	0
0.17	0.747307	1.42575	-2.31799	0.690037	1.06767	0.957133	0.261837	-0.209767	-0.0325099	1.39331	-0.167041	0	0	0.133857	0.0986905	-0.181308	0.409892	0.141799	0	0	-0.126797	-0.0966684	-0.00446944	-0.0844423	-0.140069	0.0530538	0.456765	1.20865	0	0	-0.162067	-0.236118	0.373442	0.621534	0.788322	0	0
0.18	0.716688	1.42505	-2.27769	0.691541	1.0586	0.958779	0.27907	-0.207312	-0.0387363	1.39567	-0.162441	0	0	0.111954	0.098572	-0.174037	0.397155	0.145219	0	0	-0.131927	-0.0933637	-0.0153171	-0.0870057	-0.139367	0.0510887	0.457518	1.21316	0	0	-0.150276	-0.239778	0.373583	0.623724	0.791126	0	0
0.19	0.684905	1.42424	-2.23635	0.693001	1.04955	0.960312	0.29532	-0.204879	-0.0449375	1.39411	-0.158339	0	0	0.089662	0.0977038	-0.167294	0.384005	0.148871	0	0	-0.13718	-0.0896771	-0.0263307	-0.0889327	-0.138473	0.0470425	0.458186	1.21735	0	0	-0.138484	-0.243129	0.372961	0.626101	0.790956	0	0
0.2	0.650126	1.42305	-2.19284	0.694381	1.04057	0.961737	0.310167	-0.202364	-0.0508567	1.3888	-0.153315	0	0	0.066762	0.0960916	-0.160967	0.370436	0.152507	0	0	-0.142995	-0.0855578	-0.036548	-0.0903207	-0.137724	0.0416235	0.458453	1.22082	0	0	-0.126204	-0.246004	0.372125	0.628177	0.790952	0	0
0.21	0.612013	1.42093	-2.14668	0.695695	1.03163	0.963086	0.322855	-0.2001	-0.0570011	1.3798	-0.147068	0	0	0.0429335	0.094162	-0.15406	0.356611	0.155752	0	0	-0.150036	-0.0812184	-0.0462263	-0.0916989	-0.137521	0.0383587	0.458277	1.22722	0	0	-0.114121	-0.249175	0.371987	0.631803	0.791995	0	0
0.22	0.576009	1.41906	-2.1037	0.696879	1.02271	0.964238	0.335382	-0.197513	-0.0625376	1.36762	-0.139171	0	0	0.0203944	0.0915209	-0.148141	0.343904	0.159313	0	0	-0.156475	-0.076759	-0.0548475	-0.0927127	-0.137011	0.0324511	0.458765	1.2317	0	0	-0.102079	-0.252077	0.371363	0.635287	0.794045	0	0
0.23	0.541676	1.4177	-2.06195	0.698028	1.01395	0.965198	0.347766	-0.194806	-0.0687136	1.35246	-0.130732	0	0	1.42637e-05	0.0880813	-0.141808	0.333351	0.163464	0	0	-0.162483	-0.0719268	-0.0639911	-0.0928959	-0.136115	0.0249889	0.459758	1.23162	0	0	-0.0897943	-0.254911	0.370686	0.638511	0.796313	0	0
0.24	0.509495	1.41638	-2.02255	0.699131	1.00527	0.965998	0.359395	-0.192421	-0.0748165	1.33412	-0.12027	0	0	-0.0191675	0.0845757	-0.134823	0.324012	0.167822	0	0	-0.168418	-0.0670738	-0.0730819	-0.0926133	-0.135628	0.021246	0.459275	1.23185	0	0	-0.0773646	-0.257496	0.369801	0.641519	0.799565	0	0
0.25	0.4819	1.41507	-1.98852	0.700138	0.996644	0.966624	0.370671	-0.190555	-0.080377	1.31266	-0.109092	0	0	-0.0372548	0.0814119	-0.127677	0.315708	0.172361	0	0	-0.173983	-0.0627399	-0.0813367	-0.0921684	-0.135453	0.0200543	0.457062	1.23536	0	0	-0.0647418	-0.260223	0.370301	0.644753	0.804668	0	0
0.26	0.458367	1.41376	-1.95878	0.701088	0.988086	0.967114	0.381171	-0.189227	-0.0859014	1.28808	-0.0980007	0	0	-0.0547413	0.0785091	-0.120662	0.30773	0.177108	0	0	-0.179382	-0.0588472	-0.0893332	-0.0911265	-0.134986	0.0174843	0.454066	1.23969	0	0	-0.0517482	-0.262924	0.371729	0.647787	0.811977	0	0
0.27	0.435811	1.41244	-1.93072	0.70195	0.979546	0.967509	0.390365	-0.187792	-0.0912964	1.26026	-0.0865311	0	0	-0.0721645	0.0754296	-0.114468	0.299642	0.181986	0	0	-0.184698	-0.0549355	-0.0964886	-0.0897731	-0.134503	0.014524	0.450951	1.24249	0	0	-0.0386664	-0.265064	0.372538	0.649962	0.819567	0	0
0.28	0.397695	1.41181	-1.89125	0.70344	0.971077	0.967715	0.39947	-0.194061	-0.0943873	1.22772	-0.0679332	0	0	-0.0887673	0.0764754	-0.102037	0.293548	0.182595	0	0	-0.190039	-0.0467243	-0.101068	-0.0874324	-0.135875	0.0112276	0.448519	1.24219	0	0	-0.0260381	-0.26527	0.373782	0.65149	0.826757	0	0
0.29	0.383339	1.41205	-1.87278	0.704138	0.962613	0.967732	0.408301	-0.193056	-0.100025	1.1938	-0.0535506	0	0	-0.102777	0.0739058	-0.0975544	0.287409	0.187266	0	0	-0.193255	-0.0433837	-0.10664	-0.0860077	-0.135533	0.00769125	0.446936	1.23917	0	0	-0.0128833	-0.26717	0.376317	0.652777	0.829975	0	0
0.3	0.368165	1.41217	-1.85362	0.704779	0.95416	0.967671	0.415034	-0.192072	-0.106729	1.15628	-0.0402353	0	0	-0.116742	0.0711556	-0.0926596	0.281379	0.191734	0	0	-0.196796	-0.0397655	-0.112032	-0.0844669	-0.135116	0.00333713	0.445905	1.23449	0	0	0.000618497	-0.268665	0.379059	0.653235	0.833707	0	0
0.31	0.353092	1.4126	-1.83486	0.705339	0.945691	0.967486	0.420358	-0.190985	-0.114347	1.11561	-0.0281876	0	0	-0.129871	0.0682107	-0.0877249	0.276037	0.196079	0	0	-0.19999	-0.0360128	-0.116838	-0.0830223	-0.13498	0.0028508	0.442394	1.23294	0	0	0.0140014	-0.269696	0.381672	0.653285	0.838318	0	0
0.32	0.337852	1.41333	-1.81573	0.705856	0.937205	0.967175	0.424202	-0.189931	-0.123289	1.07208	-0.016841	0	0	-0.142095	0.0650262	-0.0821712	0.271527	0.200533	0	0	-0.202795	-0.032044	-0.121582	-0.0814829	-0.135053	0.00584242	0.436567	1.2352	0	0	0.0269431	-0.270458	0.383802	0.653684	0.843385	0	0
0.33	0.322512	1.41438	-1.79629	0.706356	0.928727	0.966735	0.426563	-0.189157	-0.134253	1.02565	-0.00635623	0	0	-0.153356	0.0617259	-0.0759435	0.267855	0.205036	0	0	-0.205339	-0.027777	-0.126145	-0.0801227	-0.135193	0.00616015	0.4331	1.23611	0	0	0.0399622	-0.270475	0.385066	0.653409	0.848419	0	0
